<?xml version="1.0" encoding="UTF-8" standalone="no"?>
<svg version="1.1" xmlns="http://www.w3.org/2000/svg" xmlns:xlink="http://www.w3.org/1999/xlink" width="300" height="400">
<style><![CDATA[
	@import url(https://fonts.googleapis.com/css?family=Ubuntu:400,700);
	.txts{
		font: normal 16px 'Ubuntu', sans-serif;
		fill: #00ffaa;
	}
	#backblock rect {
		fill: #000000;
	}
	#luminant rect {
		-webkit-transition: fill .25s ease;
		   -moz-transition: fill .25s ease;
		     -o-transition: fill .25s ease;
		        transition: fill .25s ease;
	}
]]></style>
<defs>
	<filter id="glow" x="-50%" y="-50%" width="200%" height="200%">
		<feGaussianBlur stdDeviation="2" result="coloredBlur"/>
		<feMerge>
			<feMergeNode in="coloredBlur"/>
			<feMergeNode in="SourceGraphic"/>
		</feMerge>
	</filter>
	<filter id="xglow" x="-50%" y="-50%" width="200%" height="200%">
		<feGaussianBlur stdDeviation="2.5" result="coloredBlur"/>
		<feMerge>
			<feMergeNode in="coloredBlur"/>
			<feMergeNode in="SourceGraphic"/>
		</feMerge>
	</filter>
</defs>

	<rect id="background" x="0" y="0" width="300" height="400" fill="#0a0a0a" />

	<g id="backblock">
		<rect x="110" y="170" width="30" height="20" />
		<rect x="110" y="130" width="30" height="20" />
		<rect x="110" y="90" width="30" height="20" />
		<rect x="110" y="50" width="30" height="20" />
		<rect x="60" y="170" width="30" height="20" />
		<rect x="60" y="130" width="30" height="20" />
		<rect x="60" y="90" width="30" height="20" />
		<rect x="60" y="50" width="30" height="20" />
		<rect x="10" y="170" width="30" height="20" />
		<rect x="10" y="130" width="30" height="20" />
		<rect x="10" y="90" width="30" height="20" />
		<rect x="10" y="50" width="30" height="20" />

		<rect x="160" y="170" width="30" height="20" />
		<rect x="160" y="130" width="30" height="20" />
		<rect x="160" y="90" width="30" height="20" />
		<rect x="160" y="50" width="30" height="20" />

		<rect x="210" y="170" width="30" height="20" />
		<rect x="210" y="130" width="30" height="20" />
		<rect x="210" y="90" width="30" height="20" />
		<rect x="210" y="50" width="30" height="20" />
		<rect x="210" y="10" width="30" height="20" />

		<rect x="260" y="170" width="30" height="20" />
		<rect x="260" y="130" width="30" height="20" />
		<rect x="260" y="90" width="30" height="20" />

		<rect x="10" y="370" width="30" height="20" />

		<rect x="60" y="370" width="30" height="20" />
		<rect x="60" y="330" width="30" height="20" />
		<rect x="60" y="290" width="30" height="20" />
		<rect x="60" y="250" width="30" height="20" />

		<rect x="160" y="370" width="30" height="20" />
		<rect x="160" y="330" width="30" height="20" />
		<rect x="160" y="290" width="30" height="20" />
		<rect x="110" y="370" width="30" height="20" />
		<rect x="110" y="330" width="30" height="20" />
		<rect x="110" y="290" width="30" height="20" />

		<rect x="260" y="370" width="30" height="20" />
		<rect x="260" y="330" width="30" height="20" />
		<rect x="260" y="290" width="30" height="20" />
		<rect x="210" y="370" width="30" height="20" />
		<rect x="210" y="330" width="30" height="20" />
		<rect x="210" y="290" width="30" height="20" />
	</g>

	<g id="luminant" filter="url(#xglow)">
		<rect class="year" x="110" y="170" width="30" height="20" />
		<rect class="year" x="110" y="130" width="30" height="20" />
		<rect class="year" x="110" y="90" width="30" height="20" />
		<rect class="year" x="110" y="50" width="30" height="20" />
		<rect class="year" x="60" y="170" width="30" height="20" />
		<rect class="year" x="60" y="130" width="30" height="20" />
		<rect class="year" x="60" y="90" width="30" height="20" />
		<rect class="year" x="60" y="50" width="30" height="20" />
		<rect class="year" x="10" y="170" width="30" height="20" />
		<rect class="year" x="10" y="130" width="30" height="20" />
		<rect class="year" x="10" y="90" width="30" height="20" />
		<rect class="year" x="10" y="50" width="30" height="20" />

		<rect class="month" x="160" y="170" width="30" height="20" />
		<rect class="month" x="160" y="130" width="30" height="20" />
		<rect class="month" x="160" y="90" width="30" height="20" />
		<rect class="month" x="160" y="50" width="30" height="20" />

		<rect class="date" x="210" y="170" width="30" height="20" />
		<rect class="date" x="210" y="130" width="30" height="20" />
		<rect class="date" x="210" y="90" width="30" height="20" />
		<rect class="date" x="210" y="50" width="30" height="20" />
		<rect class="date" x="210" y="10" width="30" height="20" />

		<rect class="day" x="260" y="170" width="30" height="20" />
		<rect class="day" x="260" y="130" width="30" height="20" />
		<rect class="day" x="260" y="90" width="30" height="20" />

		<rect id="ampm" x="10" y="370" width="30" height="20" />

		<rect class="hour" x="60" y="370" width="30" height="20" />
		<rect class="hour" x="60" y="330" width="30" height="20" />
		<rect class="hour" x="60" y="290" width="30" height="20" />
		<rect class="hour" x="60" y="250" width="30" height="20" />

		<rect class="min" x="160" y="370" width="30" height="20" />
		<rect class="min" x="160" y="330" width="30" height="20" />
		<rect class="min" x="160" y="290" width="30" height="20" />
		<rect class="min" x="110" y="370" width="30" height="20" />
		<rect class="min" x="110" y="330" width="30" height="20" />
		<rect class="min" x="110" y="290" width="30" height="20" />

		<rect class="sec" x="260" y="370" width="30" height="20" />
		<rect class="sec" x="260" y="330" width="30" height="20" />
		<rect class="sec" x="260" y="290" width="30" height="20" />
		<rect class="sec" x="210" y="370" width="30" height="20" />
		<rect class="sec" x="210" y="330" width="30" height="20" />
		<rect class="sec" x="210" y="290" width="30" height="20" />
	</g>

	<g filter="url(#glow)">
		<text class="txts" text-anchor="middle" alignment-baseline="middle" x="75" y="30">Year</text>
		<text class="txts" text-anchor="middle" alignment-baseline="middle" x="175" y="30">Mon</text>
		<text class="txts" text-anchor="middle" alignment-baseline="middle" x="275" y="20">Date</text>
		<text class="txts" text-anchor="middle" alignment-baseline="middle" x="275" y="70">Day</text>
		<text class="txts" text-anchor="middle" alignment-baseline="middle" x="25" y="260">Hour</text>
		<text class="txts" text-anchor="middle" alignment-baseline="middle" x="25" y="330">0 am</text>
		<text class="txts" text-anchor="middle" alignment-baseline="middle" x="25" y="350">1 pm</text>
		<text class="txts" text-anchor="middle" alignment-baseline="middle" x="150" y="270">Min</text>
		<text class="txts" text-anchor="middle" alignment-baseline="middle" x="250" y="270">Sec</text>
	</g>
</svg>
