<?xml version="1.0" encoding="UTF-8" standalone="no"?>
<svg version="1.1" xmlns="http://www.w3.org/2000/svg" xmlns:xlink="http://www.w3.org/1999/xlink" width="320" height="320">
<style><![CDATA[
	@import url(https://fonts.googleapis.com/css?family=Ubuntu:400,700);
	.hno{
		font: bold 32px 'Ubuntu', sans-serif;
	}
	.radium-fill{
		fill: #2aff6a;
	}
	.radium-orange{
		fill: #ff7f00;
	}
]]></style>
<defs>
	<filter id="glow" x="-50%" y="-50%" width="200%" height="200%">
		<feGaussianBlur stdDeviation="2" result="coloredBlur"/>
		<feMerge>
			<feMergeNode in="coloredBlur"/>
			<feMergeNode in="SourceGraphic"/>
		</feMerge>
	</filter>
</defs>

	<rect id="background" x="0" y="0" width="320" height="320" fill="#0a0a0a" />

	<g filter="url(#glow)">
		<text class="hno radium-fill" text-anchor="middle" alignment-baseline="middle" x="225" y="47">1</text>
		<text class="hno radium-fill" text-anchor="middle" alignment-baseline="middle" x="273" y="95">2</text>
		<text class="hno radium-fill" text-anchor="middle" alignment-baseline="middle" x="290" y="160">3</text>
		<text class="hno radium-fill" text-anchor="middle" alignment-baseline="middle" x="273" y="225">4</text>
		<text class="hno radium-fill" text-anchor="middle" alignment-baseline="middle" x="225" y="273">5</text>
		<text class="hno radium-fill" text-anchor="middle" alignment-baseline="middle" x="160" y="290">6</text>
		<text class="hno radium-fill" text-anchor="middle" alignment-baseline="middle" x="95" y="273">7</text>
		<text class="hno radium-fill" text-anchor="middle" alignment-baseline="middle" x="47" y="225">8</text>
		<text class="hno radium-fill" text-anchor="middle" alignment-baseline="middle" x="30" y="160">9</text>
		<text class="hno radium-fill" text-anchor="middle" alignment-baseline="middle" x="47" y="95">10</text>
		<text class="hno radium-fill" text-anchor="middle" alignment-baseline="middle" x="95" y="47">11</text>
		<text class="hno radium-fill" text-anchor="middle" alignment-baseline="middle" x="160" y="30">12</text>

		<rect class="radium-fill" x="159" y="51" width="2" height="8" />
			<rect class="radium-fill" x="159" y="54" width="2" height="2" transform="rotate(6 160 160)" />
			<rect class="radium-fill" x="159" y="54" width="2" height="2" transform="rotate(12 160 160)" />
			<rect class="radium-fill" x="159" y="54" width="2" height="2" transform="rotate(18 160 160)" />
			<rect class="radium-fill" x="159" y="54" width="2" height="2" transform="rotate(24 160 160)" />
		<rect class="radium-fill" x="159" y="51" width="2" height="8" transform="rotate(30 160 160)" />
			<rect class="radium-fill" x="159" y="54" width="2" height="2" transform="rotate(36 160 160)" />
			<rect class="radium-fill" x="159" y="54" width="2" height="2" transform="rotate(42 160 160)" />
			<rect class="radium-fill" x="159" y="54" width="2" height="2" transform="rotate(48 160 160)" />
			<rect class="radium-fill" x="159" y="54" width="2" height="2" transform="rotate(54 160 160)" />
		<rect class="radium-fill" x="159" y="51" width="2" height="8" transform="rotate(60 160 160)" />
			<rect class="radium-fill" x="159" y="54" width="2" height="2" transform="rotate(66 160 160)" />
			<rect class="radium-fill" x="159" y="54" width="2" height="2" transform="rotate(72 160 160)" />
			<rect class="radium-fill" x="159" y="54" width="2" height="2" transform="rotate(78 160 160)" />
			<rect class="radium-fill" x="159" y="54" width="2" height="2" transform="rotate(84 160 160)" />

		<rect class="radium-fill" x="261" y="159" width="8" height="2" />
			<rect class="radium-fill" x="264" y="159" width="2" height="2" transform="rotate(6 160 160)" />
			<rect class="radium-fill" x="264" y="159" width="2" height="2" transform="rotate(12 160 160)" />
			<rect class="radium-fill" x="264" y="159" width="2" height="2" transform="rotate(18 160 160)" />
			<rect class="radium-fill" x="264" y="159" width="2" height="2" transform="rotate(24 160 160)" />
		<rect class="radium-fill" x="261" y="159" width="8" height="2" transform="rotate(30 160 160)" />
			<rect class="radium-fill" x="264" y="159" width="2" height="2" transform="rotate(36 160 160)" />
			<rect class="radium-fill" x="264" y="159" width="2" height="2" transform="rotate(42 160 160)" />
			<rect class="radium-fill" x="264" y="159" width="2" height="2" transform="rotate(48 160 160)" />
			<rect class="radium-fill" x="264" y="159" width="2" height="2" transform="rotate(54 160 160)" />
		<rect class="radium-fill" x="261" y="159" width="8" height="2" transform="rotate(60 160 160)" />
			<rect class="radium-fill" x="264" y="159" width="2" height="2" transform="rotate(66 160 160)" />
			<rect class="radium-fill" x="264" y="159" width="2" height="2" transform="rotate(72 160 160)" />
			<rect class="radium-fill" x="264" y="159" width="2" height="2" transform="rotate(78 160 160)" />
			<rect class="radium-fill" x="264" y="159" width="2" height="2" transform="rotate(84 160 160)" />

		<rect class="radium-fill" x="159" y="261" width="2" height="8" />
			<rect class="radium-fill" x="159" y="264" width="2" height="2" transform="rotate(6 160 160)" />
			<rect class="radium-fill" x="159" y="264" width="2" height="2" transform="rotate(12 160 160)" />
			<rect class="radium-fill" x="159" y="264" width="2" height="2" transform="rotate(18 160 160)" />
			<rect class="radium-fill" x="159" y="264" width="2" height="2" transform="rotate(24 160 160)" />
		<rect class="radium-fill" x="159" y="261" width="2" height="8" transform="rotate(30 160 160)" />
			<rect class="radium-fill" x="159" y="264" width="2" height="2" transform="rotate(36 160 160)" />
			<rect class="radium-fill" x="159" y="264" width="2" height="2" transform="rotate(42 160 160)" />
			<rect class="radium-fill" x="159" y="264" width="2" height="2" transform="rotate(48 160 160)" />
			<rect class="radium-fill" x="159" y="264" width="2" height="2" transform="rotate(54 160 160)" />
		<rect class="radium-fill" x="159" y="261" width="2" height="8" transform="rotate(60 160 160)" />
			<rect class="radium-fill" x="159" y="264" width="2" height="2" transform="rotate(66 160 160)" />
			<rect class="radium-fill" x="159" y="264" width="2" height="2" transform="rotate(72 160 160)" />
			<rect class="radium-fill" x="159" y="264" width="2" height="2" transform="rotate(78 160 160)" />
			<rect class="radium-fill" x="159" y="264" width="2" height="2" transform="rotate(84 160 160)" />

		<rect class="radium-fill" x="51" y="159" width="8" height="2" />
			<rect class="radium-fill" x="54" y="159" width="2" height="2" transform="rotate(6 160 160)" />
			<rect class="radium-fill" x="54" y="159" width="2" height="2" transform="rotate(12 160 160)" />
			<rect class="radium-fill" x="54" y="159" width="2" height="2" transform="rotate(18 160 160)" />
			<rect class="radium-fill" x="54" y="159" width="2" height="2" transform="rotate(24 160 160)" />
		<rect class="radium-fill" x="51" y="159" width="8" height="2" transform="rotate(30 160 160)" />
			<rect class="radium-fill" x="54" y="159" width="2" height="2" transform="rotate(36 160 160)" />
			<rect class="radium-fill" x="54" y="159" width="2" height="2" transform="rotate(42 160 160)" />
			<rect class="radium-fill" x="54" y="159" width="2" height="2" transform="rotate(48 160 160)" />
			<rect class="radium-fill" x="54" y="159" width="2" height="2" transform="rotate(54 160 160)" />
		<rect class="radium-fill" x="51" y="159" width="8" height="2" transform="rotate(60 160 160)" />
			<rect class="radium-fill" x="54" y="159" width="2" height="2" transform="rotate(66 160 160)" />
			<rect class="radium-fill" x="54" y="159" width="2" height="2" transform="rotate(72 160 160)" />
			<rect class="radium-fill" x="54" y="159" width="2" height="2" transform="rotate(78 160 160)" />
			<rect class="radium-fill" x="54" y="159" width="2" height="2" transform="rotate(84 160 160)" />
	</g>

	<g id="hour">
		<rect x="156" y="75" width="8" height="5" fill="#000000" />
		<rect x="155" y="80" width="10" height="80" fill="#000000" />
		<rect x="154" y="88" width="12" height="44" fill="#000000" />
		<rect class="radium-fill" x="157" y="84" width="6" height="8" filter="url(#glow)" />
		<rect class="radium-fill" x="156" y="90" width="8" height="40" filter="url(#glow)" />
	</g>
	<g id="min">
		<rect x="156" y="68" width="8" height="92" fill="#000000" />
		<rect x="155" y="78" width="10" height="64" fill="#000000" />
		<rect class="radium-fill" x="158" y="74" width="4" height="8" filter="url(#glow)" />
		<rect class="radium-fill" x="157" y="80" width="6" height="60" filter="url(#glow)" />
	</g>
	<g id="sec">
		<rect x="158" y="58" width="4" height="124" fill="#000000" />
		<rect x="157" y="148" width="6" height="24" fill="#000000" />
		<circle cx="160" cy="160" r="6" fill="#000000" />
		<rect class="radium-orange" x="159" y="60" width="2" height="120" filter="url(#glow)" />
		<rect class="radium-orange" x="158" y="150" width="4" height="20" filter="url(#glow)" />
		<circle class="radium-orange" cx="160" cy="160" r="4" filter="url(#glow)" />
	</g>
</svg>
