<?xml version="1.0" encoding="UTF-8" standalone="no"?>
<svg viewBox="0 0 320 320" version="1.1" xmlns="http://www.w3.org/2000/svg" xmlns:xlink="http://www.w3.org/1999/xlink" width="320" height="320">
<style><![CDATA[
	@import url(https://fonts.googleapis.com/css?family=Ubuntu:400,700);
	.hno{
		font: bold 32px 'Ubuntu', sans-serif;
	}
	.radium-fill{
		fill: #2aff6a;
	}
	.radium-orange{
		fill: #ff7f00;
	}
]]></style>
<defs>
	<filter id="glow" x="-50%" y="-50%" width="200%" height="200%">
		<feGaussianBlur stdDeviation="2" result="coloredBlur"/>
		<feMerge>
			<feMergeNode in="coloredBlur"/>
			<feMergeNode in="SourceGraphic"/>
		</feMerge>
	</filter>
</defs>

	<g filter="url(#glow)">
		<text class="hno radium-fill" text-anchor="middle" alignment-baseline="middle" x="225" y="47">1</text>
		<text class="hno radium-fill" text-anchor="middle" alignment-baseline="middle" x="273" y="95">2</text>
		<text class="hno radium-fill" text-anchor="middle" alignment-baseline="middle" x="290" y="160">3</text>
		<text class="hno radium-fill" text-anchor="middle" alignment-baseline="middle" x="273" y="225">4</text>
		<text class="hno radium-fill" text-anchor="middle" alignment-baseline="middle" x="225" y="273">5</text>
		<text class="hno radium-fill" text-anchor="middle" alignment-baseline="middle" x="160" y="290">6</text>
		<text class="hno radium-fill" text-anchor="middle" alignment-baseline="middle" x="95" y="273">7</text>
		<text class="hno radium-fill" text-anchor="middle" alignment-baseline="middle" x="47" y="225">8</text>
		<text class="hno radium-fill" text-anchor="middle" alignment-baseline="middle" x="30" y="160">9</text>
		<text class="hno radium-fill" text-anchor="middle" alignment-baseline="middle" x="47" y="95">10</text>
		<text class="hno radium-fill" text-anchor="middle" alignment-baseline="middle" x="95" y="47">11</text>
		<text class="hno radium-fill" text-anchor="middle" alignment-baseline="middle" x="160" y="30">12</text>
	</g>

	<g id="hour">
		<polygon points="156,75 164,75 164,80 165,80 165,88 166,88 166,132 165,132 165,160
		                 155,160 155,132 154,132 154,88 155,88 155,80 156,80" fill="#000000" />
		<polygon points="157,84 163,84 163,90 164,90 164,130 156,130 156,90 157,90" class="radium-fill" filter="url(#glow)" />
	</g>
	<g id="min">
		<polygon points="156,68 164,68 164,78 165,78 165,142 164,142 164,160
		                 156,160 156,142 155,142 155,78 156,78" fill="#000000" />
		<polygon points="158,74 162,74 162,80 163,80 163,140 157,140 157,80 158,80" class="radium-fill" filter="url(#glow)" />
	</g>
	<g id="sec">
		<polygon points="158,58 162,58 162,148 163,148 163,172 162,172 162,182
		                 158,182 158,172 157,172 157,148 158,148" fill="#000000" />
		<circle cx="160" cy="160" r="6" fill="#000000" />
		<polygon points="159,60 161,60 161,150 162,150 162,170 161,170 161,180 159,180
		                 159,170 158,170 158,150 159,150" class="radium-orange" filter="url(#glow)" />
		<circle class="radium-orange" cx="160" cy="160" r="4" filter="url(#glow)" />
	</g>
</svg>
